# xmcd
#
# Track frame offsets:
# 150
# 23095
# 43824
# 64086
# 87577
# 108731
# 131419
# 151603
# 171507
# 194009
# 215817
# 234794
# 258924
#
# Disc length: 3720 seconds
#
#
# Revision: 3
# Processed by: cddbd v1.4PL0 Copyright (c) Steve Scherf et al.
# Submitted via: FreeRIP 2.00 
#
DISCID=b70e860d
DTITLE=Alejandro Sanz - MTV Unplugged
DYEAR=1900
DGENRE=
TTITLE0=Cuando nadie me ve
TTITLE1=Y sólo se me ocurre amarte
TTITLE2=Amiga mía
TTITLE3=Se le apago la luz
TTITLE4=Quisiera ser
TTITLE5=Aprendiz
TTITLE6=Quiero morir en tu veneno
TTITLE7=Como te echo de menos
TTITLE8=Corazón partío
TTITLE9=Siempre es de noche
TTITLE10=Toca para mi
TTITLE11=Lo que fui es lo que soy
TTITLE12=Todo es de color
EXTD=
EXTT0=
EXTT1=
EXTT2=
EXTT3=
EXTT4=
EXTT5=
EXTT6=
EXTT7=
EXTT8=
EXTT9=
EXTT10=
EXTT11=
EXTT12=
PLAYORDER=
